<!-- Generated by IcoMoon.io -->
<svg version="1.1" xmlns="http://www.w3.org/2000/svg" width="56" height="32" viewBox="0 0 56 32">
<path d="M14.036 23.468c0.128 0.145 0.196 0.326 0.193 0.513 0.001 0.012 0.001 0.025 0.001 0.039 0 0.115-0.026 0.223-0.072 0.32l0.002-0.005c-0.055 0.117-0.133 0.215-0.228 0.291l-0.002 0.001c-0.217 0.15-0.486 0.239-0.776 0.239-0.032 0-0.063-0.001-0.095-0.003l0.004 0h-1.523v-3.247h1.492c0.026-0.002 0.057-0.003 0.088-0.003 0.274 0 0.53 0.081 0.744 0.221l-0.005-0.003c0.097 0.075 0.173 0.168 0.223 0.273 0.050 0.106 0.073 0.22 0.067 0.336 0.008 0.178-0.052 0.355-0.173 0.496-0.116 0.129-0.276 0.218-0.454 0.254 0.202 0.034 0.385 0.132 0.514 0.278zM12.25 22.978h0.638c0.145 0.009 0.289-0.029 0.405-0.108 0.046-0.038 0.083-0.087 0.108-0.142l0.001-0.002c0.019-0.042 0.030-0.091 0.030-0.142 0-0.011-0-0.022-0.001-0.032l0 0.001c0.001-0.008 0.001-0.018 0.001-0.027 0-0.052-0.011-0.102-0.031-0.148l0.001 0.002c-0.025-0.057-0.061-0.106-0.106-0.144l-0.001-0c-0.103-0.070-0.23-0.112-0.367-0.112-0.018 0-0.036 0.001-0.053 0.002l0.002-0h-0.628v0.852zM13.356 24.223c0.050-0.040 0.090-0.089 0.116-0.146l0.001-0.003c0.021-0.046 0.034-0.099 0.034-0.156 0-0.009-0-0.018-0.001-0.027l0 0.001c0-0.007 0.001-0.015 0.001-0.024 0-0.058-0.013-0.113-0.036-0.162l0.001 0.002c-0.029-0.060-0.069-0.11-0.119-0.149l-0.001-0.001c-0.11-0.074-0.245-0.119-0.391-0.119-0.015 0-0.030 0-0.045 0.001l0.002-0h-0.669v0.893h0.678c0.152 0.008 0.303-0.031 0.428-0.113zM17.086 24.864l-0.829-1.27h-0.312v1.27h-0.714v-3.248h1.352c0.029-0.002 0.062-0.003 0.096-0.003 0.318 0 0.612 0.105 0.848 0.282l-0.004-0.003c0.189 0.176 0.303 0.409 0.322 0.655 0.002 0.020 0.002 0.044 0.002 0.068 0 0.237-0.084 0.454-0.225 0.623l0.001-0.002c-0.168 0.173-0.39 0.292-0.639 0.329l-0.006 0.001 0.884 1.298h-0.776zM15.944 23.152h0.584c0.405 0 0.609-0.164 0.609-0.492 0-0.008 0.001-0.017 0.001-0.026 0-0.062-0.012-0.12-0.035-0.173l0.001 0.003c-0.027-0.066-0.067-0.122-0.116-0.168l-0-0c-0.111-0.084-0.251-0.134-0.403-0.134-0.020 0-0.040 0.001-0.059 0.003l0.003-0h-0.591l0.007 0.988zM20.989 24.21h-1.423l-0.251 0.654h-0.749l1.306-3.212h0.809l1.302 3.212h-0.748l-0.246-0.654zM20.798 23.718l-0.52-1.371-0.52 1.371h1.040zM25.874 24.864h-0.708l-1.59-2.209v2.209h-0.707v-3.248h0.707l1.59 2.222v-2.222h0.708v3.248zM29.919 24.087c-0.147 0.245-0.37 0.445-0.642 0.573-0.276 0.13-0.598 0.205-0.939 0.205-0.020 0-0.041-0-0.061-0.001l0.003 0h-1.261v-3.248h1.262c0.018-0 0.038-0.001 0.059-0.001 0.34 0 0.662 0.074 0.952 0.206l-0.014-0.006c0.271 0.126 0.495 0.323 0.641 0.567 0.146 0.264 0.222 0.556 0.222 0.852s-0.076 0.588-0.222 0.852zM29.108 24.009c0.192-0.201 0.311-0.474 0.313-0.775v-0c0-0.284-0.111-0.559-0.313-0.775-0.22-0.174-0.501-0.279-0.806-0.279-0.029 0-0.057 0.001-0.085 0.003l0.004-0h-0.492v2.103h0.492c0.024 0.002 0.053 0.003 0.081 0.003 0.305 0 0.587-0.105 0.809-0.281l-0.003 0.002zM21.433 3.55s9.148 3.162 8.954 7.738v7.74s-9.142-3.163-8.951-7.74l-0.003-7.738zM38.536 17.216c1.728-1.089 3.726-1.763 5.812-1.961v-2.424c-2.404 0.849-4.443 2.387-5.812 4.385z"></path>
<path d="M37.499 17.946c1.414-2.607 3.865-4.619 6.85-5.622v-6.981s-13.028 4.505-12.753 11.021v11.020s0.581-0.201 1.494-0.579c0-0.352 0-0.708 0.042-1.065 0.269-3.025 1.84-5.828 4.367-7.794z"></path>
<path d="M36.26 22.040c0.068-0.764 0.221-1.52 0.455-2.256-1.573 1.697-2.526 3.803-2.724 6.022-0.019 0.209-0.030 0.419-0.035 0.635 1.087-0.475 1.91-0.88 2.716-1.312l-0.21 0.103c-0.231-1.050-0.299-2.124-0.203-3.191zM36.777 22.079c-0.025 0.267-0.040 0.578-0.040 0.892 0 0.707 0.073 1.397 0.213 2.062l-0.011-0.065c3.559-1.95 7.559-4.964 7.405-8.605v-0.317c-2.543 0.261-4.922 1.278-6.772 2.897-0.408 0.917-0.69 1.981-0.791 3.096l-0.003 0.039z"></path>
</svg>
